<?xml version="1.0" encoding="UTF-8"?>
      <mxfile host="codeviz.app" modified="2025-03-25T11:32:55.989Z" agent="CodeViz Exporter" version="14.6.5" type="device">
        <diagram id="codeviz-diagram" name="System Diagram">
          <mxGraphModel dx="1000" dy="1000" grid="1" gridSize="10" guides="1" tooltips="1" connect="1" arrows="1" fold="1" page="1" pageScale="1" pageWidth="1169" pageHeight="827" math="0" shadow="0">
            <root>
              <mxCell id="0"/>
              <mxCell id="1" parent="0"/>
              <mxCell id="subGraph1" value="" style="html=1;whiteSpace=wrap;container=1;fillColor=#dae8fc;strokeColor=#6c8ebf;dashed=1;fillOpacity=20;strokeWidth=2;containerType=none;recursiveResize=0;movable=1;resizable=1;autosize=0;dropTarget=0" vertex="1" parent="subGraph2">
                <mxGeometry x="50" y="685" width="520" height="220" as="geometry"/>
              </mxCell>
              <mxCell id="subGraph1_label" value="Error Handling" style="edgeLabel;html=1;align=center;verticalAlign=middle;resizable=0;labelBackgroundColor=white;spacing=5" vertex="1" parent="subGraph2">
                <mxGeometry x="58" y="693" width="444" height="24" as="geometry"/>
              </mxCell>
<mxCell id="subGraph0" value="" style="html=1;whiteSpace=wrap;container=1;fillColor=#dae8fc;strokeColor=#6c8ebf;dashed=1;fillOpacity=20;strokeWidth=2;containerType=none;recursiveResize=0;movable=1;resizable=1;autosize=0;dropTarget=0" vertex="1" parent="subGraph2">
                <mxGeometry x="575" y="255" width="381" height="320" as="geometry"/>
              </mxCell>
              <mxCell id="subGraph0_label" value="Data Flow" style="edgeLabel;html=1;align=center;verticalAlign=middle;resizable=0;labelBackgroundColor=white;spacing=5" vertex="1" parent="subGraph2">
                <mxGeometry x="583" y="263" width="305" height="24" as="geometry"/>
              </mxCell>
<mxCell id="subGraph2" value="" style="html=1;whiteSpace=wrap;container=1;fillColor=#dae8fc;strokeColor=#6c8ebf;dashed=1;fillOpacity=20;strokeWidth=2;containerType=none;recursiveResize=0;movable=1;resizable=1;autosize=0;dropTarget=0" vertex="1" parent="1">
                <mxGeometry x="32" y="22" width="1036" height="1050" as="geometry"/>
              </mxCell>
              <mxCell id="subGraph2_label" value="Task Synchronization Flow" style="edgeLabel;html=1;align=center;verticalAlign=middle;resizable=0;labelBackgroundColor=white;spacing=5" vertex="1" parent="1">
                <mxGeometry x="40" y="30" width="960" height="24" as="geometry"/>
              </mxCell>
              <mxCell id="TimeTableSync" value="TimeTableSynchronizer" style="rounded=1;whiteSpace=wrap;html=1;fillColor=#f5f5f5" vertex="1" parent="subGraph2">
                    <mxGeometry x="474" y="950" width="120" height="60" as="geometry"/>
                  </mxCell>
<mxCell id="TaskRepo" value="TaskRepository" style="rounded=1;whiteSpace=wrap;html=1;fillColor=#f5f5f5" vertex="1" parent="subGraph2">
                    <mxGeometry x="819.3333333333334" y="120" width="120" height="60" as="geometry"/>
                  </mxCell>
<mxCell id="TaskApi" value="TaskApi" style="rounded=1;whiteSpace=wrap;html=1;fillColor=#f5f5f5" vertex="1" parent="subGraph2">
                    <mxGeometry x="220" y="395" width="120" height="60" as="geometry"/>
                  </mxCell>
<mxCell id="LocalDB" value="Local Database" style="rounded=1;whiteSpace=wrap;html=1;fillColor=#f5f5f5" vertex="1" parent="subGraph2">
                    <mxGeometry x="846" y="610" width="120" height="60" as="geometry"/>
                  </mxCell>
<mxCell id="NetworkModule" value="NetworkModule" style="rounded=1;whiteSpace=wrap;html=1;fillColor=#f5f5f5" vertex="1" parent="subGraph2">
                    <mxGeometry x="220" y="610" width="120" height="60" as="geometry"/>
                  </mxCell>
<mxCell id="Cache" value="Cache Layer" style="rounded=1;whiteSpace=wrap;html=1;fillColor=#f5f5f5" vertex="1" parent="subGraph2">
                    <mxGeometry x="59" y="610" width="120" height="60" as="geometry"/>
                  </mxCell>
<mxCell id="ErrorHandler" value="Error Handler" style="rounded=1;whiteSpace=wrap;html=1;fillColor=#f5f5f5" vertex="1" parent="subGraph2">
                    <mxGeometry x="220" y="950" width="120" height="60" as="geometry"/>
                  </mxCell>
<mxCell id="StateManager" value="TaskStateManager" style="rounded=1;whiteSpace=wrap;html=1;fillColor=#f5f5f5" vertex="1" parent="subGraph2">
                    <mxGeometry x="79" y="395" width="120" height="60" as="geometry"/>
                  </mxCell>
<mxCell id="FetchFlow" value="Fetch Flow" style="rounded=1;whiteSpace=wrap;html=1;fillColor=#f5f5f5" vertex="1" parent="subGraph0">
                    <mxGeometry x="181" y="120" width="120" height="60" as="geometry"/>
                  </mxCell>
<mxCell id="UpdateFlow" value="Update Flow" style="rounded=1;whiteSpace=wrap;html=1;fillColor=#f5f5f5" vertex="1" parent="subGraph0">
                    <mxGeometry x="60" y="220" width="120" height="60" as="geometry"/>
                  </mxCell>
<mxCell id="ConflictRes" value="Conflict Resolution" style="rounded=1;whiteSpace=wrap;html=1;fillColor=#f5f5f5" vertex="1" parent="subGraph0">
                    <mxGeometry x="40" y="120" width="120" height="60" as="geometry"/>
                  </mxCell>
<mxCell id="NetworkError" value="Network Error" style="rounded=1;whiteSpace=wrap;html=1;fillColor=#f5f5f5" vertex="1" parent="subGraph1">
                    <mxGeometry x="180" y="120" width="120" height="60" as="geometry"/>
                  </mxCell>
<mxCell id="DataError" value="Data Error" style="rounded=1;whiteSpace=wrap;html=1;fillColor=#f5f5f5" vertex="1" parent="subGraph1">
                    <mxGeometry x="40" y="120" width="120" height="60" as="geometry"/>
                  </mxCell>
<mxCell id="RetryMech" value="Retry Mechanism" style="rounded=1;whiteSpace=wrap;html=1;fillColor=#f5f5f5" vertex="1" parent="subGraph1">
                    <mxGeometry x="320" y="120" width="120" height="60" as="geometry"/>
                  </mxCell>
              <mxCell id="edge-L_TimeTableSync_TaskRepo_0" style="edgeStyle=orthogonalEdgeStyle;rounded=1;orthogonalLoop=1;jettySize=auto;html=1;strokeColor=#808080;strokeWidth=2;jumpStyle=arc;jumpSize=10;spacing=15;labelBackgroundColor=white;labelBorderColor=none" edge="1" parent="1" source="TimeTableSync" target="TaskRepo">
                  <mxGeometry relative="1" as="geometry"/>
                </mxCell>
                <mxCell id="edge-L_TimeTableSync_TaskRepo_0_label" value="1. Sync Request" style="edgeLabel;html=1;align=center;verticalAlign=middle;resizable=0;points=[];" vertex="1" connectable="0" parent="edge-L_TimeTableSync_TaskRepo_0">
                  <mxGeometry x="-0.2" y="10" relative="1" as="geometry">
                    <mxPoint as="offset"/>
                  </mxGeometry>
                </mxCell>
<mxCell id="edge-L_TaskRepo_LocalDB_1" style="edgeStyle=orthogonalEdgeStyle;rounded=1;orthogonalLoop=1;jettySize=auto;html=1;strokeColor=#808080;strokeWidth=2;jumpStyle=arc;jumpSize=10;spacing=15;labelBackgroundColor=white;labelBorderColor=none" edge="1" parent="1" source="TaskRepo" target="LocalDB">
                  <mxGeometry relative="1" as="geometry"/>
                </mxCell>
                <mxCell id="edge-L_TaskRepo_LocalDB_1_label" value="2. Check Local" style="edgeLabel;html=1;align=center;verticalAlign=middle;resizable=0;points=[];" vertex="1" connectable="0" parent="edge-L_TaskRepo_LocalDB_1">
                  <mxGeometry x="-0.2" y="10" relative="1" as="geometry">
                    <mxPoint as="offset"/>
                  </mxGeometry>
                </mxCell>
<mxCell id="edge-L_TaskRepo_TaskApi_2" style="edgeStyle=orthogonalEdgeStyle;rounded=1;orthogonalLoop=1;jettySize=auto;html=1;strokeColor=#808080;strokeWidth=2;jumpStyle=arc;jumpSize=10;spacing=15;labelBackgroundColor=white;labelBorderColor=none" edge="1" parent="1" source="TaskRepo" target="TaskApi">
                  <mxGeometry relative="1" as="geometry"/>
                </mxCell>
                <mxCell id="edge-L_TaskRepo_TaskApi_2_label" value="3. Fetch Remote" style="edgeLabel;html=1;align=center;verticalAlign=middle;resizable=0;points=[];" vertex="1" connectable="0" parent="edge-L_TaskRepo_TaskApi_2">
                  <mxGeometry x="-0.2" y="10" relative="1" as="geometry">
                    <mxPoint as="offset"/>
                  </mxGeometry>
                </mxCell>
<mxCell id="edge-L_TaskApi_NetworkModule_3" style="edgeStyle=orthogonalEdgeStyle;rounded=1;orthogonalLoop=1;jettySize=auto;html=1;strokeColor=#808080;strokeWidth=2;jumpStyle=arc;jumpSize=10;spacing=15;labelBackgroundColor=white;labelBorderColor=none" edge="1" parent="1" source="TaskApi" target="NetworkModule">
                  <mxGeometry relative="1" as="geometry"/>
                </mxCell>
                <mxCell id="edge-L_TaskApi_NetworkModule_3_label" value="4. Network Call" style="edgeLabel;html=1;align=center;verticalAlign=middle;resizable=0;points=[];" vertex="1" connectable="0" parent="edge-L_TaskApi_NetworkModule_3">
                  <mxGeometry x="-0.2" y="10" relative="1" as="geometry">
                    <mxPoint as="offset"/>
                  </mxGeometry>
                </mxCell>
<mxCell id="edge-L_TaskRepo_FetchFlow_4" style="edgeStyle=orthogonalEdgeStyle;rounded=1;orthogonalLoop=1;jettySize=auto;html=1;strokeColor=#808080;strokeWidth=2;jumpStyle=arc;jumpSize=10;spacing=15;labelBackgroundColor=white;labelBorderColor=none" edge="1" parent="1" source="TaskRepo" target="FetchFlow">
                  <mxGeometry relative="1" as="geometry"/>
                </mxCell>
                <mxCell id="edge-L_TaskRepo_FetchFlow_4_label" value="5. Process Data" style="edgeLabel;html=1;align=center;verticalAlign=middle;resizable=0;points=[];" vertex="1" connectable="0" parent="edge-L_TaskRepo_FetchFlow_4">
                  <mxGeometry x="-0.2" y="10" relative="1" as="geometry">
                    <mxPoint as="offset"/>
                  </mxGeometry>
                </mxCell>
<mxCell id="edge-L_FetchFlow_LocalDB_5" style="edgeStyle=orthogonalEdgeStyle;rounded=1;orthogonalLoop=1;jettySize=auto;html=1;strokeColor=#808080;strokeWidth=2;jumpStyle=arc;jumpSize=10;spacing=15;labelBackgroundColor=white;labelBorderColor=none" edge="1" parent="1" source="FetchFlow" target="LocalDB">
                  <mxGeometry relative="1" as="geometry"/>
                </mxCell>
                <mxCell id="edge-L_FetchFlow_LocalDB_5_label" value="6. Store" style="edgeLabel;html=1;align=center;verticalAlign=middle;resizable=0;points=[];" vertex="1" connectable="0" parent="edge-L_FetchFlow_LocalDB_5">
                  <mxGeometry x="-0.2" y="10" relative="1" as="geometry">
                    <mxPoint as="offset"/>
                  </mxGeometry>
                </mxCell>
<mxCell id="edge-L_TaskRepo_UpdateFlow_6" style="edgeStyle=orthogonalEdgeStyle;rounded=1;orthogonalLoop=1;jettySize=auto;html=1;strokeColor=#808080;strokeWidth=2;jumpStyle=arc;jumpSize=10;spacing=15;labelBackgroundColor=white;labelBorderColor=none" edge="1" parent="1" source="TaskRepo" target="UpdateFlow">
                  <mxGeometry relative="1" as="geometry"/>
                </mxCell>
                <mxCell id="edge-L_TaskRepo_UpdateFlow_6_label" value="7. Update" style="edgeLabel;html=1;align=center;verticalAlign=middle;resizable=0;points=[];" vertex="1" connectable="0" parent="edge-L_TaskRepo_UpdateFlow_6">
                  <mxGeometry x="-0.2" y="10" relative="1" as="geometry">
                    <mxPoint as="offset"/>
                  </mxGeometry>
                </mxCell>
<mxCell id="edge-L_UpdateFlow_ConflictRes_7" style="edgeStyle=orthogonalEdgeStyle;rounded=1;orthogonalLoop=1;jettySize=auto;html=1;strokeColor=#808080;strokeWidth=2;jumpStyle=arc;jumpSize=10;spacing=15;labelBackgroundColor=white;labelBorderColor=none" edge="1" parent="1" source="UpdateFlow" target="ConflictRes">
                  <mxGeometry relative="1" as="geometry"/>
                </mxCell>
                <mxCell id="edge-L_UpdateFlow_ConflictRes_7_label" value="8. Resolve Conflicts" style="edgeLabel;html=1;align=center;verticalAlign=middle;resizable=0;points=[];" vertex="1" connectable="0" parent="edge-L_UpdateFlow_ConflictRes_7">
                  <mxGeometry x="-0.2" y="10" relative="1" as="geometry">
                    <mxPoint as="offset"/>
                  </mxGeometry>
                </mxCell>
<mxCell id="edge-L_NetworkModule_NetworkError_8" style="edgeStyle=orthogonalEdgeStyle;rounded=1;orthogonalLoop=1;jettySize=auto;html=1;strokeColor=#808080;strokeWidth=2;jumpStyle=arc;jumpSize=10;spacing=15;labelBackgroundColor=white;labelBorderColor=none" edge="1" parent="1" source="NetworkModule" target="NetworkError">
                  <mxGeometry relative="1" as="geometry"/>
                </mxCell>
                <mxCell id="edge-L_NetworkModule_NetworkError_8_label" value="Network Issues" style="edgeLabel;html=1;align=center;verticalAlign=middle;resizable=0;points=[];" vertex="1" connectable="0" parent="edge-L_NetworkModule_NetworkError_8">
                  <mxGeometry x="-0.2" y="10" relative="1" as="geometry">
                    <mxPoint as="offset"/>
                  </mxGeometry>
                </mxCell>
<mxCell id="edge-L_NetworkError_ErrorHandler_9" style="edgeStyle=orthogonalEdgeStyle;rounded=1;orthogonalLoop=1;jettySize=auto;html=1;strokeColor=#808080;strokeWidth=2;jumpStyle=arc;jumpSize=10;spacing=15;labelBackgroundColor=white;labelBorderColor=none" edge="1" parent="1" source="NetworkError" target="ErrorHandler">
                  <mxGeometry relative="1" as="geometry"/>
                </mxCell>
                <mxCell id="edge-L_NetworkError_ErrorHandler_9_label" value="Handle" style="edgeLabel;html=1;align=center;verticalAlign=middle;resizable=0;points=[];" vertex="1" connectable="0" parent="edge-L_NetworkError_ErrorHandler_9">
                  <mxGeometry x="-0.2" y="10" relative="1" as="geometry">
                    <mxPoint as="offset"/>
                  </mxGeometry>
                </mxCell>
<mxCell id="edge-L_DataError_ErrorHandler_10" style="edgeStyle=orthogonalEdgeStyle;rounded=1;orthogonalLoop=1;jettySize=auto;html=1;strokeColor=#808080;strokeWidth=2;jumpStyle=arc;jumpSize=10;spacing=15;labelBackgroundColor=white;labelBorderColor=none" edge="1" parent="1" source="DataError" target="ErrorHandler">
                  <mxGeometry relative="1" as="geometry"/>
                </mxCell>
                <mxCell id="edge-L_DataError_ErrorHandler_10_label" value="Handle" style="edgeLabel;html=1;align=center;verticalAlign=middle;resizable=0;points=[];" vertex="1" connectable="0" parent="edge-L_DataError_ErrorHandler_10">
                  <mxGeometry x="-0.2" y="10" relative="1" as="geometry">
                    <mxPoint as="offset"/>
                  </mxGeometry>
                </mxCell>
<mxCell id="edge-L_ErrorHandler_RetryMech_11" style="edgeStyle=orthogonalEdgeStyle;rounded=1;orthogonalLoop=1;jettySize=auto;html=1;strokeColor=#808080;strokeWidth=2;jumpStyle=arc;jumpSize=10;spacing=15;labelBackgroundColor=white;labelBorderColor=none" edge="1" parent="1" source="ErrorHandler" target="RetryMech">
                  <mxGeometry relative="1" as="geometry"/>
                </mxCell>
                <mxCell id="edge-L_ErrorHandler_RetryMech_11_label" value="Retry" style="edgeLabel;html=1;align=center;verticalAlign=middle;resizable=0;points=[];" vertex="1" connectable="0" parent="edge-L_ErrorHandler_RetryMech_11">
                  <mxGeometry x="-0.2" y="10" relative="1" as="geometry">
                    <mxPoint as="offset"/>
                  </mxGeometry>
                </mxCell>
<mxCell id="edge-L_RetryMech_TimeTableSync_12" style="edgeStyle=orthogonalEdgeStyle;rounded=1;orthogonalLoop=1;jettySize=auto;html=1;strokeColor=#808080;strokeWidth=2;jumpStyle=arc;jumpSize=10;spacing=15;labelBackgroundColor=white;labelBorderColor=none" edge="1" parent="1" source="RetryMech" target="TimeTableSync">
                  <mxGeometry relative="1" as="geometry"/>
                </mxCell>
                <mxCell id="edge-L_RetryMech_TimeTableSync_12_label" value="Retry Sync" style="edgeLabel;html=1;align=center;verticalAlign=middle;resizable=0;points=[];" vertex="1" connectable="0" parent="edge-L_RetryMech_TimeTableSync_12">
                  <mxGeometry x="-0.2" y="10" relative="1" as="geometry">
                    <mxPoint as="offset"/>
                  </mxGeometry>
                </mxCell>
<mxCell id="edge-L_TaskRepo_StateManager_13" style="edgeStyle=orthogonalEdgeStyle;rounded=1;orthogonalLoop=1;jettySize=auto;html=1;strokeColor=#808080;strokeWidth=2;jumpStyle=arc;jumpSize=10;spacing=15;labelBackgroundColor=white;labelBorderColor=none" edge="1" parent="1" source="TaskRepo" target="StateManager">
                  <mxGeometry relative="1" as="geometry"/>
                </mxCell>
                <mxCell id="edge-L_TaskRepo_StateManager_13_label" value="Status Update" style="edgeLabel;html=1;align=center;verticalAlign=middle;resizable=0;points=[];" vertex="1" connectable="0" parent="edge-L_TaskRepo_StateManager_13">
                  <mxGeometry x="-0.2" y="10" relative="1" as="geometry">
                    <mxPoint as="offset"/>
                  </mxGeometry>
                </mxCell>
<mxCell id="edge-L_StateManager_Cache_14" style="edgeStyle=orthogonalEdgeStyle;rounded=1;orthogonalLoop=1;jettySize=auto;html=1;strokeColor=#808080;strokeWidth=2;jumpStyle=arc;jumpSize=10;spacing=15;labelBackgroundColor=white;labelBorderColor=none" edge="1" parent="1" source="StateManager" target="Cache">
                  <mxGeometry relative="1" as="geometry"/>
                </mxCell>
                <mxCell id="edge-L_StateManager_Cache_14_label" value="Cache Control" style="edgeLabel;html=1;align=center;verticalAlign=middle;resizable=0;points=[];" vertex="1" connectable="0" parent="edge-L_StateManager_Cache_14">
                  <mxGeometry x="-0.2" y="10" relative="1" as="geometry">
                    <mxPoint as="offset"/>
                  </mxGeometry>
                </mxCell>
<mxCell id="edge-L_Cache_TaskRepo_15" style="edgeStyle=orthogonalEdgeStyle;rounded=1;orthogonalLoop=1;jettySize=auto;html=1;strokeColor=#808080;strokeWidth=2;jumpStyle=arc;jumpSize=10;spacing=15;labelBackgroundColor=white;labelBorderColor=none" edge="1" parent="1" source="Cache" target="TaskRepo">
                  <mxGeometry relative="1" as="geometry"/>
                </mxCell>
                <mxCell id="edge-L_Cache_TaskRepo_15_label" value="Quick Access" style="edgeLabel;html=1;align=center;verticalAlign=middle;resizable=0;points=[];" vertex="1" connectable="0" parent="edge-L_Cache_TaskRepo_15">
                  <mxGeometry x="-0.2" y="10" relative="1" as="geometry">
                    <mxPoint as="offset"/>
                  </mxGeometry>
                </mxCell>
<mxCell id="edge-L_TaskRepo_DataError_16" style="edgeStyle=orthogonalEdgeStyle;rounded=1;orthogonalLoop=1;jettySize=auto;html=1;strokeColor=#808080;strokeWidth=2;jumpStyle=arc;jumpSize=10;spacing=15;labelBackgroundColor=white;labelBorderColor=none" edge="1" parent="1" source="TaskRepo" target="DataError">
                  <mxGeometry relative="1" as="geometry"/>
                </mxCell>
                <mxCell id="edge-L_TaskRepo_DataError_16_label" value="Validate" style="edgeLabel;html=1;align=center;verticalAlign=middle;resizable=0;points=[];" vertex="1" connectable="0" parent="edge-L_TaskRepo_DataError_16">
                  <mxGeometry x="-0.2" y="10" relative="1" as="geometry">
                    <mxPoint as="offset"/>
                  </mxGeometry>
                </mxCell>
<mxCell id="edge-L_ConflictRes_UpdateFlow_17" style="edgeStyle=orthogonalEdgeStyle;rounded=1;orthogonalLoop=1;jettySize=auto;html=1;strokeColor=#808080;strokeWidth=2;jumpStyle=arc;jumpSize=10;spacing=15;labelBackgroundColor=white;labelBorderColor=none" edge="1" parent="1" source="ConflictRes" target="UpdateFlow">
                  <mxGeometry relative="1" as="geometry"/>
                </mxCell>
                <mxCell id="edge-L_ConflictRes_UpdateFlow_17_label" value="Resolve" style="edgeLabel;html=1;align=center;verticalAlign=middle;resizable=0;points=[];" vertex="1" connectable="0" parent="edge-L_ConflictRes_UpdateFlow_17">
                  <mxGeometry x="-0.2" y="10" relative="1" as="geometry">
                    <mxPoint as="offset"/>
                  </mxGeometry>
                </mxCell>
            </root>
          </mxGraphModel>
        </diagram>
      </mxfile>